# xmcd
#
# Track frame offsets:
#	150
#	17681
#	36333
#	56083
#	68965
#	91571
#
# Disc length: 1462 seconds
#
# Revision: 1
# Processed by: cddbd v1.5.2PL0 Copyright (c) Steve Scherf et al.
# Submitted via: audiograbber 1.83.01
#
DISCID=4605b406
DTITLE=Liz Green - Crow Cries EP
DYEAR=2010
DGENRE=
TTITLE0=Penelope
TTITLE1=The Wall
TTITLE2=Dying Crapshooters Blues
TTITLE3=Bad Luck Boy
TTITLE4=Blue Note
TTITLE5=Ramblin Man
EXTD=
EXTT0=
EXTT1=
EXTT2=
EXTT3=
EXTT4=
EXTT5=
PLAYORDER=
